<?xml version="1.0" standalone="no"?>
<!DOCTYPE svg PUBLIC "-//W3C//DTD SVG 20010904//EN"
 "http://www.w3.org/TR/2001/REC-SVG-20010904/DTD/svg10.dtd">
<svg version="1.0" xmlns="http://www.w3.org/2000/svg"
 width="700.000000pt" height="700.000000pt" viewBox="0 0 700.000000 700.000000"
 preserveAspectRatio="xMidYMid meet">
<metadata>
Created by potrace 1.11, written by Peter Selinger 2001-2013
</metadata>
<g transform="translate(0.000000,700.000000) scale(0.100000,-0.100000)"
fill="#000000" stroke="none">
<path d="M1215 4892 c1 -1153 5 -2115 8 -2137 3 -22 8 -76 12 -120 7 -90 6
-86 35 -285 12 -80 30 -185 41 -235 11 -49 22 -101 25 -115 13 -68 71 -271
114 -402 199 -596 513 -1087 912 -1425 80 -68 229 -175 212 -152 -551 722
-750 1204 -690 1664 7 49 31 154 38 160 3 4 169 12 393 21 83 3 188 7 235 9
47 2 166 7 265 10 99 4 197 8 218 10 36 4 47 -3 195 -122 86 -70 168 -137 182
-150 14 -13 28 -23 33 -23 4 0 109 67 232 148 l224 149 173 -3 c278 -4 859
-15 905 -17 39 -1 42 -3 46 -37 6 -44 1 -396 -6 -430 -3 -14 -8 -47 -11 -75
-22 -184 -91 -432 -173 -622 -40 -95 -137 -278 -159 -304 -8 -8 -14 -19 -14
-22 0 -21 -156 -222 -249 -321 l-56 -59 65 43 c36 24 87 62 115 84 27 23 63
52 80 66 75 61 271 271 348 373 84 111 217 308 217 322 0 4 9 20 21 36 39 56
199 388 199 415 0 8 4 14 9 14 5 0 11 10 14 22 3 13 23 73 46 133 93 249 185
621 216 865 5 44 13 99 20 150 2 14 7 59 10 100 3 41 9 98 11 125 3 28 7 244
9 480 1 237 6 610 9 830 4 220 9 522 11 670 2 149 7 430 10 625 3 195 7 497
10 670 3 173 7 461 10 640 l5 325 -27 -30 c-43 -47 -116 -136 -132 -159 -8
-12 -18 -23 -21 -26 -4 -3 -101 -120 -215 -260 -115 -140 -212 -257 -215 -260
-3 -3 -23 -27 -45 -55 -21 -27 -42 -52 -45 -55 -3 -3 -29 -34 -59 -70 -29 -36
-68 -83 -86 -105 -19 -22 -61 -74 -95 -115 -34 -41 -69 -84 -78 -95 -10 -11
-48 -58 -87 -105 -38 -47 -74 -88 -79 -92 -5 -3 -41 10 -80 30 -123 64 -324
141 -426 162 -19 4 -69 15 -110 24 -41 10 -93 19 -115 22 -22 3 -46 7 -53 9
-72 24 -567 24 -662 0 -8 -2 -37 -6 -65 -10 -27 -3 -88 -15 -135 -26 -47 -11
-92 -22 -100 -24 -64 -13 -252 -85 -358 -135 l-127 -61 -20 23 c-11 13 -33 41
-50 62 -16 21 -35 44 -40 50 -6 6 -64 79 -130 161 -66 83 -122 152 -125 155
-3 3 -77 95 -165 205 -87 110 -183 229 -213 265 -60 72 -63 76 -112 140 -19
25 -38 47 -41 50 -3 3 -60 73 -127 157 -67 83 -126 154 -131 157 -5 4 -8 -826
-6 -2092z m990 -1563 c170 -43 714 -237 772 -274 33 -22 52 -65 42 -93 -12
-32 -462 -254 -562 -277 -84 -20 -201 -26 -239 -13 -29 10 -74 50 -241 216
-121 119 -128 134 -123 248 6 113 53 198 121 217 33 9 145 -3 230 -24z m2761
21 c72 -27 114 -107 118 -223 4 -113 -1 -122 -166 -282 -82 -80 -163 -152
-180 -161 -62 -32 -194 -24 -318 20 -95 33 -485 228 -499 249 -20 30 3 80 48
105 87 49 583 224 768 270 125 32 187 38 229 22z"/>
</g>
</svg>
